<?xml version="1.0" encoding="utf-8"?>
<!-- Generator: Adobe Illustrator 27.8.0, SVG Export Plug-In . SVG Version: 6.00 Build 0)  -->
<svg version="1.1" id="Ebene_1" xmlns="http://www.w3.org/2000/svg" xmlns:xlink="http://www.w3.org/1999/xlink" x="0px" y="0px"
	 viewBox="0 0 705 187" style="enable-background:new 0 0 705 187;" xml:space="preserve">
<style type="text/css">
	.st0{fill:#004D93;}
	.st1{fill-rule:evenodd;clip-rule:evenodd;fill:#84AD28;}
	.st2{fill-rule:evenodd;clip-rule:evenodd;fill:#FFFFFF;}
	.st3{fill-rule:evenodd;clip-rule:evenodd;fill:#004D93;}
</style>
<g>
	<g>
		<polygon class="st0" points="213.7,47.3 213.7,35.8 292.3,35.8 292.3,47.3 258.2,47.3 258.2,149.8 246.8,149.8 246.8,47.3 		"/>
		<path class="st0" d="M288.4,149.8V67.1h8l3.4,10.4c7.8-4.8,12.8-7.5,14.8-8.2c2.1-0.7,3.9-1.3,5.6-1.8c3.1-0.9,7.1-1.4,11.9-1.4
			s8.1,0.4,9.7,1.2v11.4c-2.5-0.6-6-0.9-10.5-0.9s-8.6,0.4-12.1,1.2c-3.6,0.8-6.4,1.7-8.5,2.6c-2.1,0.9-5.7,2.7-10.9,5.1v62.9H288.4
			L288.4,149.8z"/>
		<path class="st0" d="M352.7,53.7v-8.4c0-2.6,1.2-3.9,3.7-3.9h7.7c2.4,0,3.5,1.3,3.5,3.9v8.4c0,2.4-1.2,3.6-3.5,3.6h-7.7
			C354,57.3,352.7,56.1,352.7,53.7 M354.3,67.1h11.5v82.7h-11.5V67.1z"/>
		<polygon class="st0" points="378.5,67.1 391.1,67.1 416.7,132.8 442.7,67.1 455.2,67.1 422.3,149.8 410.8,149.8 		"/>
		<path class="st0" d="M466,53.7v-8.4c0-2.6,1.2-3.9,3.7-3.9h7.7c2.4,0,3.6,1.3,3.6,3.9v8.4c0,2.4-1.2,3.6-3.6,3.6h-7.7
			C467.3,57.3,466,56.1,466,53.7 M467.6,67.1H479v82.7h-11.4V67.1z"/>
		<path class="st0" d="M496.5,124.7V67.1h11.4v57.6c0,4.9,1.3,8.6,3.9,11.1c2.6,2.5,5.9,3.8,9.9,3.8c4,0,7.8-0.4,11.3-1.2
			c3.5-0.8,6.3-1.7,8.4-2.6c2.1-0.9,5.7-2.6,10.7-5.1V67.1h11.4v82.7h-8l-3.4-9.7c-0.3,0.1-1.4,0.8-3.4,2c-2,1.2-3.2,1.9-3.6,2.1
			c-0.5,0.2-1.6,0.8-3.3,1.8c-1.8,1-3,1.6-3.7,1.8c-0.7,0.2-1.9,0.6-3.6,1.2c-1.7,0.6-3,1-4,1.2c-3.3,0.6-6.2,0.9-8.7,0.9
			c-7.8,0-14-2.6-18.6-7.8C498.8,138.2,496.5,132,496.5,124.7"/>
		<path class="st0" d="M582.1,149.8V67.1h8l3.4,10c0.6-0.4,1.9-1.2,3.8-2.3c1.9-1.1,3.2-1.9,4-2.3c0.8-0.5,2-1.1,3.7-1.9
			c1.7-0.8,3.1-1.4,4.3-1.7l3.9-1.4c2.5-0.8,6-1.2,10.5-1.2c4.5,0,8.9,1.1,13,3.3c4.1,2.2,7.1,5.1,8.8,8.9
			c9.7-8.1,20.7-12.1,33.1-12.1c7.2,0,13.2,2.5,18.1,7.5c4.8,5,7.3,11.4,7.3,19.1v57h-11.4v-57c0-4.6-1.3-8.2-3.9-11
			c-2.6-2.7-6-4.1-10-4.1c-6.2,0-11.5,0.6-16,1.9c-4.5,1.2-9.3,3.5-14.3,6.9v63.4h-11.4v-57c0-4.6-1.3-8.2-3.9-11
			c-2.6-2.7-5.9-4.1-9.9-4.1c-4,0-7.6,0.4-11,1.2c-3.3,0.8-6,1.6-7.8,2.4c-1.9,0.8-5.4,2.5-10.7,5.1v63.4H582.1L582.1,149.8z"/>
	</g>
	<g>
		<path class="st1" d="M183.5,88.1l-13.4-13.5c-3-3-7.8-3-10.7,0L146,88.1c-0.2,0.2-0.3,0.3-0.4,0.5l0,0c0,0-2.9,3.1-7.2,3.1h-18.7
			c-4.2,0-7.2-3.1-7.2-3.1v0c-0.1-0.2-0.3-0.3-0.4-0.5L98.7,74.6c-0.2-0.2-0.3-0.3-0.5-0.4l0,0c0,0-3.1-2.9-3.1-7.2V48.2
			c0-4.3,3.1-7.2,3.1-7.2h0c0.2-0.1,0.3-0.3,0.5-0.4L112.1,27c3-3,3-7.8,0-10.8L98.7,2.7c-3-3-7.8-3-10.7,0L74.6,16.2
			c-3,3-3,7.8,0,10.8L88,40.5c0.2,0.2,0.3,0.3,0.5,0.4c0.1,0.1,3.1,3,3.1,7.2V67c0,4.1-2.9,7-3.1,7.2c-0.2,0.1-0.3,0.3-0.5,0.4
			L74.6,88.1c-0.2,0.2-0.3,0.3-0.4,0.5v0c0,0-2.9,3.1-7.2,3.1H48.3c-4.2,0-7.2-3.1-7.2-3.1l0,0c-0.1-0.2-0.3-0.3-0.4-0.5L27.3,74.6
			c-3-3-7.8-3-10.7,0L3.2,88.1c-3,3-3,7.8,0,10.8l13.4,13.5c3,3,7.8,3,10.7,0l13.4-13.5c0.2-0.2,0.3-0.3,0.4-0.5l0,0
			c0,0,2.9-3.1,7.2-3.1H67c4.2,0,7.2,3.1,7.2,3.1l0,0c0.1,0.2,0.3,0.3,0.4,0.5L88,112.4c0.2,0.2,0.3,0.3,0.5,0.4
			c0,0,3.1,2.9,3.1,7.2v18.8c0,3.8-2.4,6.5-3,7.1c-0.2,0.2-0.4,0.3-0.6,0.5L74.6,160c-3,3-3,7.8,0,10.8L88,184.3c3,3,7.8,3,10.7,0
			l13.4-13.5c3-3,3-7.8,0-10.8l-13.4-13.5c-0.2-0.2-0.3-0.3-0.5-0.4c-0.3-0.3-3.1-3.2-3.1-7.2V120c0-4.3,3.1-7.2,3.1-7.2h0
			c0.2-0.1,0.3-0.3,0.5-0.4l13.4-13.5c0.2-0.2,0.3-0.3,0.4-0.5l0,0c0,0,2.9-3.1,7.2-3.1h18.7c4.2,0,7.2,3.1,7.2,3.1l0,0
			c0.1,0.2,0.3,0.3,0.4,0.5l13.4,13.5c3,3,7.8,3,10.7,0l13.4-13.5C186.5,95.9,186.5,91.1,183.5,88.1L183.5,88.1z"/>
		<path class="st2" d="M105.3,89.9L96.4,81c-2-2-5.1-2-7.1,0l-8.9,8.9c-2,2-2,5.2,0,7.1l8.9,8.9c2,2,5.1,2,7.1,0l8.9-8.9
			C107.2,95.1,107.2,91.9,105.3,89.9"/>
		<path class="st3" d="M99.3,91.6L94.7,87c-1-1-2.7-1-3.7,0l-4.6,4.7c-1,1-1,2.7,0,3.7L91,100c1,1,2.7,1,3.7,0l4.6-4.7
			C100.3,94.3,100.3,92.6,99.3,91.6"/>
		<g>
			<path class="st3" d="M84.1,55.7c-4.2,0-7.2-3.1-7.2-3.1l0,0c-0.1-0.1-0.3-0.3-0.4-0.5L63.1,38.7c-3-3-7.8-3-10.7,0L39,52.2
				c-3,3-3,7.8,0,10.8l13.4,13.5c3,3,7.8,3,10.7,0L76.5,63c0.2-0.2,0.3-0.3,0.4-0.5l0,0c0,0,2.9-3.1,7.2-3.1h7.4v-3.6H84.1z"/>
			<path class="st3" d="M76.5,123.9L63,110.4c-0.2-0.2-0.3-0.3-0.5-0.4h0c0,0-3.1-2.9-3.1-7.2v-7.5h-3.6v7.5c0,4.3-3.1,7.2-3.1,7.2
				l0,0c-0.2,0.1-0.3,0.3-0.5,0.4l-13.4,13.5c-3,3-3,7.8,0,10.8l13.4,13.5c3,3,7.8,3,10.7,0l13.4-13.5
				C79.4,131.7,79.4,126.9,76.5,123.9L76.5,123.9z"/>
			<path class="st3" d="M147.7,124l-13.4-13.5c-3-3-7.8-3-10.7,0L110.2,124c-0.2,0.2-0.3,0.3-0.4,0.5l0,0c0,0-2.9,3.1-7.2,3.1h-7.5
				v3.6h7.5c4.2,0,7.2,3.1,7.2,3.1l0,0c0.1,0.2,0.3,0.3,0.4,0.5l13.4,13.5c3,3,7.8,3,10.7,0l13.4-13.5
				C150.7,131.8,150.7,127,147.7,124L147.7,124z"/>
			<path class="st3" d="M147.8,52.2l-13.4-13.5c-3-3-7.8-3-10.7,0l-13.4,13.5c-3,3-3,7.8,0,10.8l13.4,13.5c0.2,0.2,0.3,0.3,0.5,0.4
				c0.1,0.1,3.1,3,3.1,7.2v7.5h3.6v-7.5c0-4.3,3.1-7.2,3.1-7.2h0c0.2-0.1,0.3-0.3,0.5-0.4L147.8,63
				C150.8,60.1,150.8,55.2,147.8,52.2L147.8,52.2z"/>
		</g>
	</g>
</g>
</svg>
